HIERARCHY
ROOT Hips
{
  OFFSET 52.4576 100.652 11.3569
  CHANNELS 6 Xposition Yposition Zposition Zrotation Xrotation Yrotation
  JOINT spine
  {
    OFFSET 0 8.81704 0.507024
    CHANNELS 3 Zrotation Xrotation Yrotation
    JOINT spine1
    {
      OFFSET 0 10.7766 0
      CHANNELS 3 Zrotation Xrotation Yrotation
      JOINT spine2
      {
        OFFSET 0 10.3259 0
        CHANNELS 3 Zrotation Xrotation Yrotation
        JOINT Neck
        {
          OFFSET 0 26.511 1.26395
          CHANNELS 3 Zrotation Xrotation Yrotation
          JOINT Head
          {
            OFFSET 0 8.00966 0
            CHANNELS 3 Zrotation Xrotation Yrotation
            End Site
            {
              OFFSET 0 19.3879 -6.39386
            }
          }
        }
        JOINT RightShoulder
        {
          OFFSET -4.34795 11.1512 -0.605422
          CHANNELS 3 Zrotation Xrotation Yrotation
          JOINT RightArm
          {
            OFFSET 0 14.6258 0
            CHANNELS 3 Zrotation Xrotation Yrotation
            JOINT RightArmRoll
            {
              OFFSET 0 7.3834 0
              CHANNELS 3 Zrotation Xrotation Yrotation
              JOINT RightForeArm
              {
                OFFSET 0 21.5052 0
                CHANNELS 3 Zrotation Xrotation Yrotation
                JOINT RightForeArmRoll
                {
                  OFFSET 0 8.28532 0
                  CHANNELS 3 Zrotation Xrotation Yrotation
                  JOINT RightHand
                  {
                    OFFSET 0 16.6268 0
                    CHANNELS 3 Zrotation Xrotation Yrotation
                    End Site
                    {
                      OFFSET 0 0 0
                    }
                  }
                }
              }
            }
          }
        }
        JOINT LeftShoulder
        {
          OFFSET 4.34795 11.1512 -0.605422
          CHANNELS 3 Zrotation Xrotation Yrotation
          JOINT LeftArm
          {
            OFFSET 0 14.6258 0
            CHANNELS 3 Zrotation Xrotation Yrotation
            JOINT LeftArmRoll
            {
              OFFSET 0 7.3834 0
              CHANNELS 3 Zrotation Xrotation Yrotation
              JOINT LeftForeArm
              {
                OFFSET 0 21.5052 0
                CHANNELS 3 Zrotation Xrotation Yrotation
                JOINT LeftForeArmRoll
                {
                  OFFSET 0 8.28532 0
                  CHANNELS 3 Zrotation Xrotation Yrotation
                  JOINT LeftHand
                  {
                    OFFSET 0 16.6268 0
                    CHANNELS 3 Zrotation Xrotation Yrotation
                    End Site
                    {
                      OFFSET 0 0 0
                    }
                  }
                }
              }
            }
          }
        }
      }
    }
  }
  JOINT RightUpLeg
  {
    OFFSET -7.8151 -1.43309 -1.20217
    CHANNELS 3 Zrotation Xrotation Yrotation
    JOINT RightUpLegRoll
    {
      OFFSET 0 19.4959 0
      CHANNELS 3 Zrotation Xrotation Yrotation
      JOINT RightLeg
      {
        OFFSET 0 -24.1427 0
        CHANNELS 3 Zrotation Xrotation Yrotation
        JOINT RightLegRoll
        {
          OFFSET 0 24.2217 0
          CHANNELS 3 Zrotation Xrotation Yrotation
          JOINT RightFoot
          {
            OFFSET 0 20.1605 0
            CHANNELS 3 Zrotation Xrotation Yrotation
            JOINT RightToeBase
            {
              OFFSET 0 16.8532 0
              CHANNELS 3 Zrotation Xrotation Yrotation
              End Site
              {
                OFFSET 0.00714343 8.16187 -0.94078
              }
            }
          }
        }
      }
    }
  }
  JOINT LeftUpLeg
  {
    OFFSET 7.8151 -1.43309 -1.20217
    CHANNELS 3 Zrotation Xrotation Yrotation
    JOINT LeftUpLegRoll
    {
      OFFSET 0 19.496 0
      CHANNELS 3 Zrotation Xrotation Yrotation
      JOINT LeftLeg
      {
        OFFSET 0 24.1426 0
        CHANNELS 3 Zrotation Xrotation Yrotation
        JOINT LeftLegRoll
        {
          OFFSET 0 24.4456 0
          CHANNELS 3 Zrotation Xrotation Yrotation
          JOINT LeftFoot
          {
            OFFSET 0 19.9366 0
            CHANNELS 3 Zrotation Xrotation Yrotation
            JOINT LeftToeBase
            {
              OFFSET 0 16.8532 0
              CHANNELS 3 Zrotation Xrotation Yrotation
              End Site
              {
                OFFSET -0.0320138 8.16186 -0.940781
              }
            }
          }
        }
      }
    }
  }
}
MOTION
Frames: 4
Frame Time: 0.00208333
52.9666 100.569 12.0743 -0.710153 -2.61845 3.85455 0.219083 -1.99962 -0.0739376 0.432558 0.00322211 -0.168575 0.434184 1.64828 -0.175896 -3.37806 27.9568 2.15158 -2.564 7.53999 0.811648 67.171 -2.10158 -2.13376 105.902 14.8869 11.4083 2.43321e-007 -3.66873e-008 -7.95142e-007 15.2442 3.11802 -0.562169 -1.30976e-006 -9.52086e-007 -3 8.02895 -4.95147 0.697704 -62.4836 -4.32082 2.96121 -108.398 14.4926 -4.53439 -2.21091e-007 -4.0194e-008 7.92172e-007 -12.1335 5.4807 1.03142 3.7289e-006 -4.1781e-006 3 -8.02886 -4.95146 -0.697698 179.544 -2.0404 -1.00493 180 7.01543e-015 178.905 178.768 5.16787 179.697 -2.99257e-007 -3.05125e-006 0.033406 -18.237 67.442 19.0873 8.14155 25.3104 -3.38082 -176.313 -0.0597242 1.78309 4.54188e-006 -4.6773e-006 -1.12251 -2.13279 -9.04382 0.181969 4.83318e-006 -1.63434e-006 -0.168592 19.8741 69.4134 -20.7877 -8.14826 25.4216 3.23572 
52.9564 100.574 12.1574 -0.708246 -2.62501 3.86425 0.21727 -1.99659 -0.0755891 0.427845 0.00929431 -0.171702 0.429552 1.65435 -0.178946 -3.36933 27.9242 2.15023 -2.57179 7.55614 0.81451 67.1948 -2.10101 -2.13562 105.89 14.8772 11.4311 2.43321e-007 -3.66873e-008 -7.95142e-007 15.2197 3.20515 -0.577613 -1.30976e-006 -9.52086e-007 -3 8.02895 -4.95147 0.697704 -62.421 -4.34855 2.97289 -108.482 14.5236 -4.46637 -2.21091e-007 -4.0194e-008 7.92172e-007 -12.1509 5.51369 1.03558 3.7289e-006 -4.1781e-006 3 -8.02886 -4.95146 -0.697698 179.531 -2.04275 -0.983643 180 7.01543e-015 178.905 178.741 5.172 179.699 -2.99257e-007 -3.05125e-006 0.033406 -18.2369 67.4419 19.0871 8.14119 25.3048 -3.38853 -176.315 -0.0689719 1.78645 4.54188e-006 -4.6773e-006 -1.12251 -2.12839 -9.03969 0.182809 4.83318e-006 -1.63434e-006 -0.168592 19.8734 69.4126 -20.7868 -8.14826 25.4215 3.23541 
52.9664 100.572 12.1377 -0.706332 -2.6316 3.87416 0.215399 -1.99344 -0.0772755 0.422964 0.0155903 -0.174893 0.424765 1.66064 -0.182056 -3.35824 27.8906 2.14811 -2.58098 7.57342 0.817459 67.2196 -2.10064 -2.13767 105.879 14.869 11.4491 2.43321e-007 -3.66873e-008 -7.95142e-007 15.1992 3.28939 -0.592697 -1.30976e-006 -9.52086e-007 -3 8.02895 -4.95147 0.697704 -62.3541 -4.37774 2.98511 -108.571 14.5549 -4.3966 -2.21091e-007 -4.0194e-008 7.92172e-007 -12.1682 5.54738 1.03984 3.7289e-006 -4.1781e-006 3 -8.02886 -4.95146 -0.697698 179.516 -2.04501 -0.96166 180 7.01543e-015 178.905 178.713 5.17615 179.702 -2.99257e-007 -3.05125e-006 0.033406 -18.2369 67.4419 19.087 8.1408 25.299 -3.39652 -176.317 -0.0783614 1.78992 4.54188e-006 -4.6773e-006 -1.12251 -2.12386 -9.03553 0.183671 4.83318e-006 -1.63434e-006 -0.168592 19.8728 69.412 -20.7862 -8.14825 25.4213 3.2351 
52.9614 100.567 12.0794 -0.704414 -2.63821 3.8842 0.213487 -1.99021 -0.0789862 0.417967 0.022043 -0.178128 0.419869 1.6671 -0.18521 -3.34548 27.8562 2.14545 -2.59116 7.59149 0.820469 67.2452 -2.1004 -2.13987 105.867 14.8619 11.4637 2.43321e-007 -3.66873e-008 -7.95142e-007 15.1814 3.37162 -0.60753 -1.30976e-006 -9.52086e-007 -3 8.02895 -4.95147 0.697704 -62.284 -4.40795 2.99771 -108.663 14.5862 -4.32559 -2.21091e-007 -4.0194e-008 7.92172e-007 -12.1854 5.58155 1.04417 3.7289e-006 -4.1781e-006 3 -8.02886 -4.95146 -0.697698 179.502 -2.04721 -0.939191 180 7.01543e-015 178.905 178.685 5.18037 179.704 -2.99257e-007 -3.05125e-006 0.033406 -18.2369 67.4419 19.0869 8.14041 25.293 -3.40471 -176.319 -0.0878501 1.79347 4.54188e-006 -4.6773e-006 -1.12251 -2.11924 -9.03134 0.18455 4.83318e-006 -1.63434e-006 -0.168592 19.8722 69.4114 -20.7856 -8.14824 25.4212 3.23479 
